ffmpeg started on 2025-06-09 at 18:12:10
Report written to "D:\Convert\FFMetrics\reports\ssim_report-6.txt"
Log level: 32
Command line:
ffmpeg -hide_banner -nostdin -i "G:\\\xc0\xed\xe8\xec\xe5\\\xce\xed\xe3\xee\xe8\xed\xe3\xe8\\!_30_\xc2\xe5\xf1\xed\xe0_2023\\\xd1\xeb\xe8\xf8\xea\xee\xec \xec\xe8\xeb\xfb\xe9 \xea\xf0\xe8\xe7\xe8\xf1\\Kawaisugi_Crisis_[09]_[AniLibria_TV]_[WEBRip_1080p]_HEVC.mkv" -i "G:\\\xc0\xed\xe8\xec\xe5\\\xce\xed\xe3\xee\xe8\xed\xe3\xe8\\!_30_\xc2\xe5\xf1\xed\xe0_2023\\\xd1\xeb\xe8\xf8\xea\xee\xec \xec\xe8\xeb\xfb\xe9 \xea\xf0\xe8\xe7\xe8\xf1\\Kawaisugi_Crisis_[09]_[AniLibria_TV]_[WEBRip_1080p].mkv" -lavfi "[0:v]settb=AVTB,setpts=PTS-STARTPTS,format=pix_fmts=yuv420p10,fps=24000/1001,scale=1920:1080:flags=bicubic[main];[1:v]settb=AVTB,setpts=PTS-STARTPTS,format=pix_fmts=yuv420p,fps=24000/1001,scale=1920:1080:flags=bicubic[ref];[main][ref]ssim=eof_action=endall:stats_file='D\\:/Convert/FFMetrics/logs/ssim_logfile-6.txt'" -f null -
Input #0, matroska,webm, from 'G:\Аниме\Онгоинги\!_30_Весна_2023\Слишком милый кризис\Kawaisugi_Crisis_[09]_[AniLibria_TV]_[WEBRip_1080p]_HEVC.mkv':
  Metadata:
    ENCODER         : Lavf61.7.100
  Duration: 00:23:42.51, start: -0.021000, bitrate: 1070 kb/s
  Stream #0:0(jpn): Video: hevc (Main 10), yuv420p10le(pc, bt709, progressive), 1920x1080 [SAR 1:1 DAR 16:9], 23.98 fps, 23.98 tbr, 1k tbn (default) (forced)
      Metadata:
        title           : Original
        ENCODER         : Lavc61.19.100 libx265
        BPS             : 872787
        DURATION        : 00:23:42.504708333
        NUMBER_OF_FRAMES: 34106
        NUMBER_OF_BYTES : 155192933
        _STATISTICS_WRITING_APP: mkvpropedit v66.0.0 ('Josie') 64-bit
        _STATISTICS_WRITING_DATE_UTC: 2025-06-09 14:03:14
        _STATISTICS_TAGS: BPS DURATION NUMBER_OF_FRAMES NUMBER_OF_BYTES
  Stream #0:1(rus): Audio: aac (LC), 48000 Hz, stereo, fltp (default) (forced)
      Metadata:
        title           : AniLibria.TV
        ENCODER         : Lavc61.19.100 aac
        BPS             : 193048
        DURATION        : 00:23:42.399000000
        NUMBER_OF_FRAMES: 66676
        NUMBER_OF_BYTES : 34323925
        _STATISTICS_WRITING_APP: mkvpropedit v66.0.0 ('Josie') 64-bit
        _STATISTICS_WRITING_DATE_UTC: 2025-06-09 14:03:14
        _STATISTICS_TAGS: BPS DURATION NUMBER_OF_FRAMES NUMBER_OF_BYTES
  Stream #0:2(rus): Subtitle: ass (ssa) (default) (forced)
      Metadata:
        title           : Надписи
        BPS             : 0
        DURATION        : 00:00:00.000000000
        NUMBER_OF_FRAMES: 0
        NUMBER_OF_BYTES : 0
        _STATISTICS_WRITING_APP: mkvpropedit v66.0.0 ('Josie') 64-bit
        _STATISTICS_WRITING_DATE_UTC: 2025-06-09 14:03:14
        _STATISTICS_TAGS: BPS DURATION NUMBER_OF_FRAMES NUMBER_OF_BYTES
  Stream #0:3(rus): Subtitle: ass (ssa)
      Metadata:
        title           : Субтитры
        BPS             : 179
        DURATION        : 00:23:39.130000000
        NUMBER_OF_FRAMES: 341
        NUMBER_OF_BYTES : 31883
        _STATISTICS_WRITING_APP: mkvpropedit v66.0.0 ('Josie') 64-bit
        _STATISTICS_WRITING_DATE_UTC: 2025-06-09 14:03:14
        _STATISTICS_TAGS: BPS DURATION NUMBER_OF_FRAMES NUMBER_OF_BYTES
Input #1, matroska,webm, from 'G:\Аниме\Онгоинги\!_30_Весна_2023\Слишком милый кризис\Kawaisugi_Crisis_[09]_[AniLibria_TV]_[WEBRip_1080p].mkv':
  Metadata:
    encoder         : libebml v1.4.2 + libmatroska v1.6.4
    creation_time   : 2025-01-14T16:54:30.000000Z
  Duration: 00:23:42.51, start: 0.000000, bitrate: 1911 kb/s
  Stream #1:0(jpn): Video: h264 (High), yuvj420p(pc, bt709, progressive), 1920x1080 [SAR 1:1 DAR 16:9], 23.98 fps, 23.98 tbr, 1k tbn (default) (forced)
      Metadata:
        title           : Original
        BPS             : 1700745
        DURATION        : 00:23:42.505000000
        NUMBER_OF_FRAMES: 34106
        NUMBER_OF_BYTES : 302414922
        _STATISTICS_WRITING_APP: mkvmerge v66.0.0 ('Josie') 64-bit
        _STATISTICS_WRITING_DATE_UTC: 2025-01-14 16:54:30
        _STATISTICS_TAGS: BPS DURATION NUMBER_OF_FRAMES NUMBER_OF_BYTES
  Stream #1:1(rus): Audio: aac (LC), 48000 Hz, stereo, fltp (default) (forced)
      Metadata:
        title           : AniLibria.TV
        BPS             : 192088
        DURATION        : 00:23:42.399000000
        NUMBER_OF_FRAMES: 66675
        NUMBER_OF_BYTES : 34153247
        _STATISTICS_WRITING_APP: mkvmerge v66.0.0 ('Josie') 64-bit
        _STATISTICS_WRITING_DATE_UTC: 2025-01-14 16:54:30
        _STATISTICS_TAGS: BPS DURATION NUMBER_OF_FRAMES NUMBER_OF_BYTES
  Stream #1:2(rus): Subtitle: ass (ssa) (default) (forced)
      Metadata:
        title           : Надписи
        BPS             : 0
        DURATION        : 00:00:00.000000000
        NUMBER_OF_FRAMES: 0
        NUMBER_OF_BYTES : 0
        _STATISTICS_WRITING_APP: mkvmerge v66.0.0 ('Josie') 64-bit
        _STATISTICS_WRITING_DATE_UTC: 2025-01-14 16:54:30
        _STATISTICS_TAGS: BPS DURATION NUMBER_OF_FRAMES NUMBER_OF_BYTES
  Stream #1:3(rus): Subtitle: ass (ssa)
      Metadata:
        title           : Субтитры
        BPS             : 179
        DURATION        : 00:23:39.130000000
        NUMBER_OF_FRAMES: 341
        NUMBER_OF_BYTES : 31883
        _STATISTICS_WRITING_APP: mkvmerge v66.0.0 ('Josie') 64-bit
        _STATISTICS_WRITING_DATE_UTC: 2025-01-14 16:54:30
        _STATISTICS_TAGS: BPS DURATION NUMBER_OF_FRAMES NUMBER_OF_BYTES
  Stream #1:4: Attachment: ttf
      Metadata:
        filename        : CALIBRI.TTF
        mimetype        : application/x-truetype-font
  Stream #1:5: Attachment: ttf
      Metadata:
        filename        : tt0142m.ttf
        mimetype        : application/x-truetype-font
  Stream #1:6: Attachment: ttf
      Metadata:
        filename        : ARIAL.TTF
        mimetype        : application/x-truetype-font
Stream mapping:
  Stream #0:0 (hevc) -> settb:default
  Stream #1:0 (h264) -> settb:default
  ssim:default -> Stream #0:0 (wrapped_avframe)
  Stream #0:1 -> #0:1 (aac (native) -> pcm_s16le (native))
[swscaler @ 000001f23f0fc980] deprecated pixel format used, make sure you did set range correctly
Output #0, null, to 'pipe:':
  Metadata:
    encoder         : Lavf61.7.100
  Stream #0:0: Video: wrapped_avframe, yuv420p10le(pc, bt709, progressive), 1920x1080 [SAR 1:1 DAR 16:9], q=2-31, 200 kb/s, 23.98 fps, 23.98 tbn
      Metadata:
        encoder         : Lavc61.19.100 wrapped_avframe
  Stream #0:1(rus): Audio: pcm_s16le, 48000 Hz, stereo, s16, 1536 kb/s (default) (forced)
      Metadata:
        title           : AniLibria.TV
        _STATISTICS_TAGS: BPS DURATION NUMBER_OF_FRAMES NUMBER_OF_BYTES
        BPS             : 193048
        DURATION        : 00:23:42.399000000
        NUMBER_OF_FRAMES: 66676
        NUMBER_OF_BYTES : 34323925
        _STATISTICS_WRITING_APP: mkvpropedit v66.0.0 ('Josie') 64-bit
        _STATISTICS_WRITING_DATE_UTC: 2025-06-09 14:03:14
        encoder         : Lavc61.19.100 pcm_s16le
frame=  149 fps=0.0 q=-0.0 size=N/A time=00:00:06.21 bitrate=N/A speed=11.9x    frame=  329 fps=319 q=-0.0 size=N/A time=00:00:13.72 bitrate=N/A speed=13.3x    frame=  511 fps=329 q=-0.0 size=N/A time=00:00:21.31 bitrate=N/A speed=13.7x    frame=  740 fps=357 q=-0.0 size=N/A time=00:00:30.86 bitrate=N/A speed=14.9x    frame=  971 fps=376 q=-0.0 size=N/A time=00:00:40.49 bitrate=N/A speed=15.7x    frame= 1127 fps=363 q=-0.0 size=N/A time=00:00:47.00 bitrate=N/A speed=15.2x    frame= 1348 fps=373 q=-0.0 size=N/A time=00:00:56.22 bitrate=N/A speed=15.6x    frame= 1562 fps=379 q=-0.0 size=N/A time=00:01:05.14 bitrate=N/A speed=15.8x    frame= 1795 fps=386 q=-0.0 size=N/A time=00:01:14.86 bitrate=N/A speed=16.1x    frame= 2005 fps=389 q=-0.0 size=N/A time=00:01:23.62 bitrate=N/A speed=16.2x    frame= 2216 fps=391 q=-0.0 size=N/A time=00:01:32.42 bitrate=N/A speed=16.3x    frame= 2450 fps=395 q=-0.0 size=N/A time=00:01:42.18 bitrate=N/A speed=16.5x    frame= 2684 fps=400 q=-0.0 size=N/A time=00:01:51.94 bitrate=N/A speed=16.7x    frame= 2939 fps=407 q=-0.0 size=N/A time=00:02:02.58 bitrate=N/A speed=  17x    frame= 3142 fps=406 q=-0.0 size=N/A time=00:02:11.04 bitrate=N/A speed=16.9x    frame= 3261 fps=395 q=-0.0 size=N/A time=00:02:16.01 bitrate=N/A speed=16.5x    frame= 3488 fps=398 q=-0.0 size=N/A time=00:02:25.47 bitrate=N/A speed=16.6x    frame= 3724 fps=401 q=-0.0 size=N/A time=00:02:35.32 bitrate=N/A speed=16.7x    frame= 3959 fps=404 q=-0.0 size=N/A time=00:02:45.12 bitrate=N/A speed=16.8x    frame= 4126 fps=400 q=-0.0 size=N/A time=00:02:52.08 bitrate=N/A speed=16.7x    frame= 4273 fps=394 q=-0.0 size=N/A time=00:02:58.21 bitrate=N/A speed=16.5x    frame= 4503 fps=397 q=-0.0 size=N/A time=00:03:07.81 bitrate=N/A speed=16.5x    frame= 4718 fps=398 q=-0.0 size=N/A time=00:03:16.77 bitrate=N/A speed=16.6x    frame= 4967 fps=401 q=-0.0 size=N/A time=00:03:27.16 bitrate=N/A speed=16.7x    frame= 5204 fps=403 q=-0.0 size=N/A time=00:03:37.05 bitrate=N/A speed=16.8x    frame= 5450 fps=406 q=-0.0 size=N/A time=00:03:47.31 bitrate=N/A speed=  17x    frame= 5692 fps=409 q=-0.0 size=N/A time=00:03:57.40 bitrate=N/A speed=17.1x    frame= 5933 fps=411 q=-0.0 size=N/A time=00:04:07.45 bitrate=N/A speed=17.1x    frame= 6152 fps=411 q=-0.0 size=N/A time=00:04:16.58 bitrate=N/A speed=17.2x    frame= 6413 fps=415 q=-0.0 size=N/A time=00:04:27.47 bitrate=N/A speed=17.3x    frame= 6635 fps=415 q=-0.0 size=N/A time=00:04:36.73 bitrate=N/A speed=17.3x    frame= 6858 fps=416 q=-0.0 size=N/A time=00:04:46.03 bitrate=N/A speed=17.3x    frame= 7058 fps=414 q=-0.0 size=N/A time=00:04:54.37 bitrate=N/A speed=17.3x    frame= 7310 fps=417 q=-0.0 size=N/A time=00:05:04.88 bitrate=N/A speed=17.4x    frame= 7561 fps=419 q=-0.0 size=N/A time=00:05:15.35 bitrate=N/A speed=17.5x    frame= 7795 fps=420 q=-0.0 size=N/A time=00:05:25.11 bitrate=N/A speed=17.5x    frame= 8041 fps=422 q=-0.0 size=N/A time=00:05:35.37 bitrate=N/A speed=17.6x    frame= 8304 fps=424 q=-0.0 size=N/A time=00:05:46.34 bitrate=N/A speed=17.7x    frame= 8512 fps=423 q=-0.0 size=N/A time=00:05:55.02 bitrate=N/A speed=17.6x    frame= 8745 fps=424 q=-0.0 size=N/A time=00:06:04.73 bitrate=N/A speed=17.7x    frame= 8923 fps=422 q=-0.0 size=N/A time=00:06:12.16 bitrate=N/A speed=17.6x    frame= 9171 fps=424 q=-0.0 size=N/A time=00:06:22.50 bitrate=N/A speed=17.7x    frame= 9412 fps=424 q=-0.0 size=N/A time=00:06:32.55 bitrate=N/A speed=17.7x    frame= 9651 fps=425 q=-0.0 size=N/A time=00:06:42.52 bitrate=N/A speed=17.7x    frame= 9884 fps=426 q=-0.0 size=N/A time=00:06:52.24 bitrate=N/A speed=17.8x    frame=10101 fps=426 q=-0.0 size=N/A time=00:07:01.29 bitrate=N/A speed=17.8x    frame=10309 fps=425 q=-0.0 size=N/A time=00:07:09.97 bitrate=N/A speed=17.7x    frame=10526 fps=425 q=-0.0 size=N/A time=00:07:19.02 bitrate=N/A speed=17.7x    frame=10760 fps=426 q=-0.0 size=N/A time=00:07:28.78 bitrate=N/A speed=17.8x    frame=10989 fps=426 q=-0.0 size=N/A time=00:07:38.33 bitrate=N/A speed=17.8x    frame=11245 fps=428 q=-0.0 size=N/A time=00:07:49.01 bitrate=N/A speed=17.8x    frame=11479 fps=428 q=-0.0 size=N/A time=00:07:58.76 bitrate=N/A speed=17.9x    frame=11711 fps=428 q=-0.0 size=N/A time=00:08:08.44 bitrate=N/A speed=17.9x    frame=11944 fps=429 q=-0.0 size=N/A time=00:08:18.16 bitrate=N/A speed=17.9x    frame=12170 fps=429 q=-0.0 size=N/A time=00:08:27.59 bitrate=N/A speed=17.9x    frame=12399 fps=429 q=-0.0 size=N/A time=00:08:37.14 bitrate=N/A speed=17.9x    frame=12624 fps=429 q=-0.0 size=N/A time=00:08:46.52 bitrate=N/A speed=17.9x    frame=12864 fps=430 q=-0.0 size=N/A time=00:08:56.53 bitrate=N/A speed=17.9x    frame=13113 fps=431 q=-0.0 size=N/A time=00:09:06.92 bitrate=N/A speed=  18x    frame=13365 fps=432 q=-0.0 size=N/A time=00:09:17.43 bitrate=N/A speed=  18x    frame=13586 fps=432 q=-0.0 size=N/A time=00:09:26.64 bitrate=N/A speed=  18x    frame=13809 fps=432 q=-0.0 size=N/A time=00:09:35.95 bitrate=N/A speed=  18x    frame=14038 fps=432 q=-0.0 size=N/A time=00:09:45.50 bitrate=N/A speed=  18x    frame=14231 fps=431 q=-0.0 size=N/A time=00:09:53.55 bitrate=N/A speed=  18x    frame=14471 fps=432 q=-0.0 size=N/A time=00:10:03.56 bitrate=N/A speed=  18x    frame=14704 fps=432 q=-0.0 size=N/A time=00:10:13.27 bitrate=N/A speed=  18x    frame=14945 fps=432 q=-0.0 size=N/A time=00:10:23.33 bitrate=N/A speed=  18x    frame=15163 fps=432 q=-0.0 size=N/A time=00:10:32.42 bitrate=N/A speed=  18x    frame=15345 fps=431 q=-0.0 size=N/A time=00:10:40.01 bitrate=N/A speed=  18x    frame=15554 fps=431 q=-0.0 size=N/A time=00:10:48.73 bitrate=N/A speed=  18x    frame=15806 fps=431 q=-0.0 size=N/A time=00:10:59.24 bitrate=N/A speed=  18x    frame=16056 fps=432 q=-0.0 size=N/A time=00:11:09.66 bitrate=N/A speed=  18x    frame=16299 fps=433 q=-0.0 size=N/A time=00:11:19.80 bitrate=N/A speed=  18x    frame=16516 fps=433 q=-0.0 size=N/A time=00:11:28.85 bitrate=N/A speed=  18x    frame=16747 fps=433 q=-0.0 size=N/A time=00:11:38.48 bitrate=N/A speed=  18x    frame=16975 fps=433 q=-0.0 size=N/A time=00:11:47.99 bitrate=N/A speed=18.1x    frame=17239 fps=434 q=-0.0 size=N/A time=00:11:59.00 bitrate=N/A speed=18.1x    frame=17497 fps=435 q=-0.0 size=N/A time=00:12:09.77 bitrate=N/A speed=18.1x    frame=17750 fps=435 q=-0.0 size=N/A time=00:12:20.32 bitrate=N/A speed=18.2x    frame=17988 fps=436 q=-0.0 size=N/A time=00:12:30.24 bitrate=N/A speed=18.2x    frame=18230 fps=436 q=-0.0 size=N/A time=00:12:40.34 bitrate=N/A speed=18.2x    frame=18457 fps=436 q=-0.0 size=N/A time=00:12:49.81 bitrate=N/A speed=18.2x    frame=18710 fps=437 q=-0.0 size=N/A time=00:13:00.36 bitrate=N/A speed=18.2x    frame=18951 fps=437 q=-0.0 size=N/A time=00:13:10.41 bitrate=N/A speed=18.2x    frame=19177 fps=437 q=-0.0 size=N/A time=00:13:19.84 bitrate=N/A speed=18.2x    frame=19330 fps=436 q=-0.0 size=N/A time=00:13:26.22 bitrate=N/A speed=18.2x    frame=19558 fps=436 q=-0.0 size=N/A time=00:13:35.73 bitrate=N/A speed=18.2x    frame=19800 fps=436 q=-0.0 size=N/A time=00:13:45.82 bitrate=N/A speed=18.2x    frame=20011 fps=436 q=-0.0 size=N/A time=00:13:54.62 bitrate=N/A speed=18.2x    frame=20220 fps=435 q=-0.0 size=N/A time=00:14:03.34 bitrate=N/A speed=18.2x    frame=20461 fps=436 q=-0.0 size=N/A time=00:14:13.39 bitrate=N/A speed=18.2x    frame=20700 fps=436 q=-0.0 size=N/A time=00:14:23.36 bitrate=N/A speed=18.2x    frame=20931 fps=436 q=-0.0 size=N/A time=00:14:32.99 bitrate=N/A speed=18.2x    frame=21181 fps=437 q=-0.0 size=N/A time=00:14:43.42 bitrate=N/A speed=18.2x    frame=21427 fps=437 q=-0.0 size=N/A time=00:14:53.68 bitrate=N/A speed=18.2x    frame=21670 fps=438 q=-0.0 size=N/A time=00:15:03.81 bitrate=N/A speed=18.3x    frame=21907 fps=438 q=-0.0 size=N/A time=00:15:13.70 bitrate=N/A speed=18.3x    frame=22099 fps=437 q=-0.0 size=N/A time=00:15:21.71 bitrate=N/A speed=18.2x    frame=22291 fps=436 q=-0.0 size=N/A time=00:15:29.72 bitrate=N/A speed=18.2x    frame=22534 fps=437 q=-0.0 size=N/A time=00:15:39.85 bitrate=N/A speed=18.2x    frame=22778 fps=437 q=-0.0 size=N/A time=00:15:50.03 bitrate=N/A speed=18.2x    frame=22997 fps=437 q=-0.0 size=N/A time=00:15:59.16 bitrate=N/A speed=18.2x    frame=23187 fps=436 q=-0.0 size=N/A time=00:16:07.09 bitrate=N/A speed=18.2x    frame=23420 fps=437 q=-0.0 size=N/A time=00:16:16.80 bitrate=N/A speed=18.2x    frame=23644 fps=437 q=-0.0 size=N/A time=00:16:26.15 bitrate=N/A speed=18.2x    frame=23880 fps=437 q=-0.0 size=N/A time=00:16:35.99 bitrate=N/A speed=18.2x    frame=24093 fps=437 q=-0.0 size=N/A time=00:16:44.87 bitrate=N/A speed=18.2x    frame=24351 fps=437 q=-0.0 size=N/A time=00:16:55.63 bitrate=N/A speed=18.2x    frame=24562 fps=437 q=-0.0 size=N/A time=00:17:04.44 bitrate=N/A speed=18.2x    frame=24786 fps=437 q=-0.0 size=N/A time=00:17:13.78 bitrate=N/A speed=18.2x    frame=24991 fps=437 q=-0.0 size=N/A time=00:17:22.33 bitrate=N/A speed=18.2x    frame=25206 fps=436 q=-0.0 size=N/A time=00:17:31.30 bitrate=N/A speed=18.2x    frame=25417 fps=436 q=-0.0 size=N/A time=00:17:40.10 bitrate=N/A speed=18.2x    frame=25653 fps=436 q=-0.0 size=N/A time=00:17:49.94 bitrate=N/A speed=18.2x    frame=25861 fps=436 q=-0.0 size=N/A time=00:17:58.61 bitrate=N/A speed=18.2x    frame=26098 fps=436 q=-0.0 size=N/A time=00:18:08.50 bitrate=N/A speed=18.2x    frame=26329 fps=436 q=-0.0 size=N/A time=00:18:18.13 bitrate=N/A speed=18.2x    frame=26555 fps=436 q=-0.0 size=N/A time=00:18:27.56 bitrate=N/A speed=18.2x    frame=26782 fps=436 q=-0.0 size=N/A time=00:18:37.03 bitrate=N/A speed=18.2x    frame=27000 fps=436 q=-0.0 size=N/A time=00:18:46.12 bitrate=N/A speed=18.2x    frame=27244 fps=437 q=-0.0 size=N/A time=00:18:56.30 bitrate=N/A speed=18.2x    frame=27464 fps=436 q=-0.0 size=N/A time=00:19:05.47 bitrate=N/A speed=18.2x    frame=27679 fps=436 q=-0.0 size=N/A time=00:19:14.44 bitrate=N/A speed=18.2x    frame=27904 fps=436 q=-0.0 size=N/A time=00:19:23.82 bitrate=N/A speed=18.2x    frame=28151 fps=437 q=-0.0 size=N/A time=00:19:34.13 bitrate=N/A speed=18.2x    frame=28400 fps=437 q=-0.0 size=N/A time=00:19:44.51 bitrate=N/A speed=18.2x    frame=28633 fps=437 q=-0.0 size=N/A time=00:19:54.23 bitrate=N/A speed=18.2x    frame=28877 fps=437 q=-0.0 size=N/A time=00:20:04.41 bitrate=N/A speed=18.2x    frame=29136 fps=438 q=-0.0 size=N/A time=00:20:15.21 bitrate=N/A speed=18.3x    frame=29373 fps=438 q=-0.0 size=N/A time=00:20:25.09 bitrate=N/A speed=18.3x    frame=29591 fps=438 q=-0.0 size=N/A time=00:20:34.19 bitrate=N/A speed=18.3x    frame=29784 fps=437 q=-0.0 size=N/A time=00:20:42.24 bitrate=N/A speed=18.2x    frame=29984 fps=437 q=-0.0 size=N/A time=00:20:50.58 bitrate=N/A speed=18.2x    frame=30211 fps=437 q=-0.0 size=N/A time=00:21:00.05 bitrate=N/A speed=18.2x    frame=30463 fps=438 q=-0.0 size=N/A time=00:21:10.56 bitrate=N/A speed=18.2x    frame=30709 fps=438 q=-0.0 size=N/A time=00:21:20.82 bitrate=N/A speed=18.3x    frame=30959 fps=438 q=-0.0 size=N/A time=00:21:31.24 bitrate=N/A speed=18.3x    frame=31192 fps=438 q=-0.0 size=N/A time=00:21:40.96 bitrate=N/A speed=18.3x    frame=31399 fps=438 q=-0.0 size=N/A time=00:21:49.59 bitrate=N/A speed=18.3x    frame=31589 fps=437 q=-0.0 size=N/A time=00:21:57.52 bitrate=N/A speed=18.2x    frame=31762 fps=437 q=-0.0 size=N/A time=00:22:04.74 bitrate=N/A speed=18.2x    frame=31971 fps=437 q=-0.0 size=N/A time=00:22:13.45 bitrate=N/A speed=18.2x    frame=32128 fps=436 q=-0.0 size=N/A time=00:22:20.00 bitrate=N/A speed=18.2x    frame=32286 fps=435 q=-0.0 size=N/A time=00:22:26.59 bitrate=N/A speed=18.1x    frame=32443 fps=434 q=-0.0 size=N/A time=00:22:33.14 bitrate=N/A speed=18.1x    frame=32595 fps=433 q=-0.0 size=N/A time=00:22:39.48 bitrate=N/A speed=18.1x    frame=32744 fps=432 q=-0.0 size=N/A time=00:22:45.69 bitrate=N/A speed=  18x    frame=32894 fps=431 q=-0.0 size=N/A time=00:22:51.95 bitrate=N/A speed=  18x    frame=33062 fps=430 q=-0.0 size=N/A time=00:22:58.96 bitrate=N/A speed=17.9x    frame=33229 fps=430 q=-0.0 size=N/A time=00:23:05.92 bitrate=N/A speed=17.9x    frame=33431 fps=429 q=-0.0 size=N/A time=00:23:14.35 bitrate=N/A speed=17.9x    frame=33656 fps=429 q=-0.0 size=N/A time=00:23:23.73 bitrate=N/A speed=17.9x    frame=33882 fps=429 q=-0.0 size=N/A time=00:23:33.16 bitrate=N/A speed=17.9x    [Parsed_ssim_10 @ 000001f22a129900] SSIM Y:0.995481 (23.449404) U:0.995969 (23.945659) V:0.995957 (23.933261) All:0.995642 (23.606689)
[out#0/null @ 000001f227912dc0] video:14654KiB audio:266704KiB subtitle:0KiB other streams:0KiB global headers:0KiB muxing overhead: unknown
frame=34105 fps=429 q=-0.0 Lsize=N/A time=00:23:42.42 bitrate=N/A speed=17.9x    
